Harry.Potter.6.TS.XviD

Video is Taken from the German release by PFD Audio from STG...Thanks

Audio in sync throughout this is a straight conversion from the X264 HD Camera 

source to AVI. No Filters used and its quite dark in parts.


SAMPLE Included in Torrent


Format                           : AVI
Format/Info                      : Audio Video Interleave
File size                        : 805 MiB
Duration                         : 2h 17mn
Overall bit rate                 : 816 Kbps

Video
Format                           : MPEG-4 Visual
Format profile                   : Streaming Video@L
Format settings, BVOP            : Yes
Format settings, QPel            : No
Format settings, GMC             : No warppoints
Format settings, Matrix          : Default
Codec ID                         : XVID
Codec ID/Hint                    : XviD
Duration                         : 2h 17mn
Bit rate                         : 615 Kbps
Width                            : 720 pixels
Height                           : 576 pixels
Display aspect ratio             : 5/4
Frame rate                       : 25.000 fps
Standard                         : PAL
Resolution                       : 24 bits
Colorimetry                      : 4:2:0
Scan type                        : Progressive
Bits/(Pixel*Frame)               : 0.059
Stream size                      : 606 MiB (75%)
Writing library                  : XviD 1.1.2 (UTC 2006-11-01)

Audio
Format                           : AC-3
Format/Info                      : Audio Coding 3
Codec ID                         : 2000
Duration                         : 2h 17mn
Bit rate mode                    : Constant
Bit rate                         : 192 Kbps
Channel(s)                       : 2 channels
Channel positions                : L R
Sampling rate                    : 48.0 KHz
Resolution                       : 16 bits
Stream size                      : 189 MiB (24%)
Alignment                        : Aligned on interleaves
Interleave, duration             : 40 ms (1.00 video frame)